<svg xmlns="http://www.w3.org/2000/svg" width="20.496" height="20.496" xmlns:v="https://vecta.io/nano"><path d="M10.6 6.426l5.074 5.074a.5.5 0 0 1 0 .7l-.934.934a.5.5 0 0 1-.7 0l-3.79-3.79-3.79 3.79a.5.5 0 0 1-.7 0l-.934-.934a.5.5 0 0 1 0-.7L9.9 6.426a.5.5 0 0 1 .7 0zm9.9 3.822a10.25 10.25 0 0 1-10.247 10.248A10.25 10.25 0 0 1 .004 10.251 10.25 10.25 0 0 1 10.248 0c2.72-.002 5.327 1.077 7.25 3S20.5 7.53 20.5 10.248zm-1.983 0c0-4.565-3.7-8.265-8.265-8.265s-8.265 3.7-8.265 8.265 3.7 8.265 8.265 8.265a8.26 8.26 0 0 0 8.261-8.265z" fill="rgba(255,255,255,0.5)"/></svg>